# xmcd
#
# Track frame offsets: 
#        150
#        9199
#        20424
#        31396
#        38123
#        46105
#        51139
#        60961
#        66153
#        72203
#        81062
#        89402
#        100549
#        106963
#        114653
#        121602
#        128732
#        142926
#        149951
#        160218
#
# Disc length: 2274 seconds
#
# Revision: 0
# Processed by: cddbd v1.5.1PL2 Copyright (c) Steve Scherf et al.
# Submitted via: ExactAudioCopy v0.95a5
#
DISCID=0008e014
DTITLE=Various / Bluegrass Banjo
DYEAR=2005
DGENRE=Bluegrass
TTITLE0=Eric Weissberg with Marshall Brickman / Feuding Banjo
TTITLE1=Joe Maphis / Flop Eared Mule
TTITLE2=Billy Cheatwood / Hundreds of Miles
TTITLE3=David Lindley / Bluegrass Mountian Medley
TTITLE4=Dick Rasmini / Mountian Breakdown
TTITLE5=Art Podell / Mountian Stomp
TTITLE6=Dick Weissman / Banjo Road
TTITLE7=Jim McGuinn / Ramblin' Banjo
TTITLE8=Joe Maphis / Banjo Rhythms
TTITLE9=Dick Rasmini / Red Apple Juice
TTITLE10=Jim McGuinn / Banjo Bach
TTITLE11=Mike Seeger / Cripple Creek
TTITLE12=Erik Darling / Blue Grass Banjo
TTITLE13=Mason Williams / Staurday Nigh Banjo
TTITLE14=Jim Helms / Hooka Tooka
TTITLE15=Dick Weissman / Old Joe Clark
TTITLE16=David Lindley / The Johnson Boys
TTITLE17=David Lindley / Clinch Mountian Backstop
TTITLE18=Adam "Swannee" Swann / Kentucky Fiddler
TTITLE19=Adam "Swannee" Swann / Will The Circle Be Unbroken
EXTD=
EXTT0=
EXTT1=
EXTT2=
EXTT3=
EXTT4=
EXTT5=
EXTT6=
EXTT7=
EXTT8=
EXTT9=
EXTT10=
EXTT11=
EXTT12=
EXTT13=
EXTT14=
EXTT15=
EXTT16=
EXTT17=
EXTT18=
EXTT19=
PLAYORDER=
